<svg xmlns="http://www.w3.org/2000/svg" viewBox="0 0 254.69 69.84"><defs><style>.cls-1{fill:#fff;fill-rule:evenodd;}</style></defs><g id="Capa_2" data-name="Capa 2"><g id="Capa_1-2" data-name="Capa 1"><path class="cls-1" d="M144.78,49.3l-3.8-2c-1.38-.59-1.81-.19-3.07,1.09l-9,10.07a4.58,4.58,0,0,0-1.69,3.94l0,3.47Zm-7.64-4.06-1.89-1.46-.79-.58c-.46-.21-1.16-1-2.09.34l-5.19,7.21v6.59Zm-10-11.84a20.48,20.48,0,0,0,4,7l-4,6.69,0-9.26Zm33.94,26.07c2-1,2.13-.76,4.3-.64a16.11,16.11,0,0,0-1.57-1.22s0,0,0,0l-3.21-1.72c-2.09-1.26-3.28-1.13-5.46.31L138,68.44l6.5,0A8.07,8.07,0,0,0,149,67c4-2.61,8.23-4.94,12.11-7.54Zm-12-27.57a57.78,57.78,0,0,1-6-2.8L160.62,5.86A7.67,7.67,0,0,1,164.68,3c2.63-.7,6.12.76,7.92,1.2Zm20.54,8.4c-2.25-1.45-4.46-1.87-6.87-2.91L194.07,12c3.29-2.32,6-1.88,10-1.73a24.59,24.59,0,0,0,7.25-.41Zm3.26,2.25L224.74,8.34a31.7,31.7,0,0,1,12.77-3.79l17.18-1.66L178.13,47.34A45.48,45.48,0,0,0,172.9,42.55ZM141.56,4.49a13.66,13.66,0,0,1,1.73-2.66A5,5,0,0,1,145.34.46c-.81.1-1.46.23-2.26.4a13.1,13.1,0,0,0-9.67,9.46,14.19,14.19,0,0,0-.1,8.22l.95,2Zm14.4-2A3.69,3.69,0,0,1,158.8.68,8.37,8.37,0,0,0,157,.22a12,12,0,0,0-3.48-.16c-4.13.41-5.15,1.75-6.94,4.66L136,23.5c.25.3.7.69,1,1a28.76,28.76,0,0,0,3.34,2.76Zm32.62,6c-4.06-.55-5.8-1.65-8.28-1.46a6.12,6.12,0,0,0-4.45,2L152.4,33.42c2.17.8,4.5,1.5,6.82,2.36ZM154.53,53.1c-.92-.45-1.84-.85-2.88-1.24-1.5-.45-2.85-.83-4.32-.23a6.29,6.29,0,0,0-1.6,1.09L144,54.11,127.23,68.44h2.31l-.16,0h2.9a5.73,5.73,0,0,0,3.18-.9l.95-.72.83-.65h0Z"/><path class="cls-1" d="M82.3,42.35H79.83l0,26.28v.43H71.12l0-39.91v-.54c.12-3.74,2.81-4,5-4.08h3.67v4.92l.08,5H89L85.41,40c-.87,1.25-1.46,2.3-3.11,2.31"/><path class="cls-1" d="M95.65,36.33c.42-.58.51-.93,1.41-1.32a5.17,5.17,0,0,1,1.82-.35l4.13,0a15.23,15.23,0,0,1,5.24,1.12c6.4,2.69,6.79,9.34,6.76,15.4l-.1,17.3-8.58,0V67.8l0-13.31-5.22,0c-2.2,0-4.08.75-4.57,2.28a.94.94,0,0,0-.06.18,3.47,3.47,0,0,0,.16,2.43,2.81,2.81,0,0,0,.6.82c1.23,1.13,4.16,1.34,6.27,1.3L99.84,67c-1,1.64-1.71,1.92-4.1,1.63h0A9.7,9.7,0,0,1,89,64.13a10.09,10.09,0,0,1-1.32-3.6,11.38,11.38,0,0,1,0-3.86,11.59,11.59,0,0,1,2.14-4.83,12.09,12.09,0,0,1,9.55-4.75l7.13,0c.17-1.91-.29-3.1-1.25-3.81a8.4,8.4,0,0,0-4.85-1.11h-9Z"/><path class="cls-1" d="M45.64,67.57,42.42,66l1.5-1.9L45.53,62a3,3,0,0,1,3.81-1l.69.3a9,9,0,0,0,1.08.44l.43.17,1.18.24.56,0a4,4,0,0,0,2.55-.55,2.45,2.45,0,0,0,1-1.42,2.06,2.06,0,0,0-.23-1.56c-.56-1-2.19-2-4.12-3a29.23,29.23,0,0,1-5.36-3,10.51,10.51,0,0,1-3.75-5.55,9,9,0,0,1,.08-5.35c1.45-4.63,5.62-7.12,10.28-7.21l11.54.12L62,39.77c-1.3,2-1.71,2.43-4.16,2.4l-3,0c-1.56,0-3.08.21-3.4,1.28s.32,2.12,1.24,2.89A66.17,66.17,0,0,0,60,50.54c2.61,1.63,5.28,3.58,5.45,8.73C65,67.6,58.54,70.54,51.86,69.7a18,18,0,0,1-6.22-2.13"/><path class="cls-1" d="M3.22,67.57,0,66l1.5-1.9L3.11,62a3,3,0,0,1,3.81-1l.69.3a8.37,8.37,0,0,0,1.08.44l.43.17,1.18.24.56,0a4,4,0,0,0,2.55-.55,2.45,2.45,0,0,0,1-1.42,2.06,2.06,0,0,0-.23-1.56c-.56-1-2.19-2-4.12-3a29.23,29.23,0,0,1-5.36-3A10.51,10.51,0,0,1,.92,47.1,9,9,0,0,1,1,41.75c1.45-4.63,5.62-7.12,10.28-7.21H22.9l-3.33,5.22c-1.29,2-1.7,2.43-4.16,2.4l-3.09,0c-1.56,0-3,.19-3.34,1.25s.37,2.15,1.29,2.92a66.17,66.17,0,0,0,7.27,4.23c2.61,1.63,5.28,3.58,5.45,8.73C22.62,67.6,16.12,70.54,9.44,69.7a18,18,0,0,1-6.22-2.13"/><path class="cls-1" d="M37.15,69.07H28.52l0-30.26c.23-3.27,1.79-4.14,3.78-4.29h4.87Z"/></g></g></svg>